<?xml version="1.0" ?><svg viewBox="0 0 64 64" xmlns="http://www.w3.org/2000/svg" fill="#7E4F4B"><g id="Glyph"><g data-name="Glyph" id="Glyph-2"><path d="M25,56H21a1,1,0,0,0,0,2h4a1,1,0,0,0,0-2Z"/><circle cx="29" cy="57" r="1"/><path d="M43,20H39a1,1,0,0,0,0,2h3v3a1,1,0,0,0,2,0V21A1,1,0,0,0,43,20Z"/><path d="M43,38a1,1,0,0,0-1,1v3H39a1,1,0,0,0,0,2h4a1,1,0,0,0,1-1V39A1,1,0,0,0,43,38Z"/><path d="M21,26a1,1,0,0,0,1-1V22h3a1,1,0,0,0,0-2H21a1,1,0,0,0-1,1v4A1,1,0,0,0,21,26Z"/><path d="M25,42H22V39a1,1,0,0,0-2,0v4a1,1,0,0,0,1,1h4a1,1,0,0,0,0-2Z"/><path d="M39,32a1,1,0,0,0,1-1V25a1,1,0,0,0-2,0v6A1,1,0,0,0,39,32Z"/><path d="M35,32a1,1,0,0,0,1-1V25a1,1,0,0,0-2,0v6A1,1,0,0,0,35,32Z"/><path d="M31,38H25a1,1,0,0,0,0,2h6a1,1,0,0,0,0-2Z"/><path d="M31,34H25a1,1,0,0,0,0,2h6a1,1,0,0,0,0-2Z"/><circle cx="32" cy="6" r="1"/><path d="M49,18V12a1,1,0,0,0-1-1V6.11A4.11,4.11,0,0,0,43.89,2H20.11A4.11,4.11,0,0,0,16,6.11V57.89A4.11,4.11,0,0,0,20.11,62H43.89A4.11,4.11,0,0,0,48,57.89V28a1,1,0,0,0,1-1V24a1,1,0,0,0-1-1V19A1,1,0,0,0,49,18ZM46,57.89A2.1,2.1,0,0,1,43.89,60H20.11A2.1,2.1,0,0,1,18,57.89V6.11A2.1,2.1,0,0,1,20.11,4H43.89A2.1,2.1,0,0,1,46,6.11Z"/><rect height="6" rx="1" width="6" x="34" y="34"/><rect height="8" rx="1" width="8" x="24" y="24"/></g></g></svg>