<svg width="250" height="250" viewBox="0 0 250 250" fill="none" xmlns="http://www.w3.org/2000/svg">
<path d="M43.6149 84.4342C43.6149 84.4342 33.2891 98.6937 33.2891 118.731C33.2891 138.768 43.6149 153.027 43.6149 153.027" stroke="#7E4F4B" stroke-width="13.7678" stroke-linecap="round"/>
<path d="M53.2191 143.931L48.5397 161.394L31.076 156.715" stroke="#7E4F4B" stroke-width="13.7678" stroke-linecap="round" stroke-linejoin="round"/>
<path d="M206.386 167.787C206.386 167.787 216.712 153.527 216.712 133.49C216.712 113.453 206.386 99.1936 206.386 99.1936" stroke="#7E4F4B" stroke-width="13.7678" stroke-linecap="round"/>
<path d="M196.782 108.29L201.461 90.8264L218.925 95.5058" stroke="#7E4F4B" stroke-width="13.7678" stroke-linecap="round" stroke-linejoin="round"/>
<path fill-rule="evenodd" clip-rule="evenodd" d="M92.5394 42.1475C81.6769 42.1475 72.8711 50.9532 72.8711 61.8157L72.8711 188.184C72.8711 199.047 81.6769 207.853 92.5394 207.853H157.445C168.307 207.853 177.113 199.047 177.113 188.184V61.8157C177.113 50.9532 168.307 42.1475 157.445 42.1475L92.5394 42.1475ZM96.473 61.8157C94.3005 61.8157 92.5394 63.5769 92.5394 65.7494V184.251C92.5394 186.423 94.3005 188.184 96.473 188.184H153.511C155.683 188.184 157.445 186.423 157.445 184.251V65.7494C157.445 63.5769 155.683 61.8157 153.511 61.8157H96.473Z" fill="#7E4F4B"/>
</svg>
