<svg width="29" height="42" viewBox="0 0 29 42" fill="none" xmlns="http://www.w3.org/2000/svg">
<mask id="path-1-outside-1_337_435" maskUnits="userSpaceOnUse" x="-0.118109" y="-0.162484" width="28.9782" height="43.6989" fill="black">
<rect fill="white" x="-0.118109" y="-0.162484" width="28.9782" height="43.6989"/>
<path fill-rule="evenodd" clip-rule="evenodd" d="M21.48 4.94522C21.8358 4.88183 22.5424 4.68998 22.6227 4.40888C22.7244 4.0532 22.9805 2.60066 22.2744 2.05386C21.5684 1.50705 17.6645 1.61154 11.7375 2.36488C5.81055 3.11823 2.00462 3.9937 1.45781 4.69975C0.911007 5.4058 1.52231 6.74809 1.70974 7.06702C1.85788 7.31909 2.59002 7.32806 2.95036 7.30042C3.02765 7.66287 3.25379 8.14823 3.39953 8.41912C3.39953 8.41912 3.52406 8.35803 3.76169 8.25437C3.87862 9.36233 4.4231 11.459 5.95656 13.268C6.69761 14.1422 7.7751 15.0032 8.85653 15.8674C10.9228 17.5186 13.0035 19.1812 12.7789 20.9693C12.6107 22.3089 11.4488 23.7396 10.2089 25.2664C8.9275 26.8442 7.56275 28.5247 7.12517 30.3134C6.3452 33.5016 7.08669 35.7728 7.35172 36.5319C7.09849 36.4914 6.96416 36.4637 6.96416 36.4637C6.89082 36.7624 6.79329 37.2889 6.80913 37.6592C6.45333 37.7226 5.74674 37.9144 5.66637 38.1955C5.56468 38.5512 5.30862 40.0037 6.01467 40.5506C6.72072 41.0974 10.6246 40.9929 16.5516 40.2395C22.4786 39.4862 26.2845 38.6107 26.8313 37.9047C27.3781 37.1986 26.7668 35.8563 26.5794 35.5374C26.4312 35.2853 25.6991 35.2763 25.3387 35.304C25.2615 34.9415 25.0353 34.4562 24.8896 34.1853C24.8896 34.1853 24.8273 34.2159 24.7066 34.2705C24.7746 33.4184 24.8838 31.0761 23.3657 28.2491C22.4946 26.6268 20.7528 25.3412 19.1175 24.1341C17.535 22.966 16.0522 21.8715 15.5542 20.6166C14.8894 18.9415 16.488 16.8112 18.0755 14.6956C18.9064 13.5884 19.7342 12.4852 20.233 11.4534C21.2493 9.35088 21.2674 7.21827 21.1112 6.10136C21.2516 6.1256 21.3249 6.14071 21.3249 6.14071C21.3983 5.84198 21.4958 5.31548 21.48 4.94522Z"/>
</mask>
<path fill-rule="evenodd" clip-rule="evenodd" d="M21.48 4.94522C21.8358 4.88183 22.5424 4.68998 22.6227 4.40888C22.7244 4.0532 22.9805 2.60066 22.2744 2.05386C21.5684 1.50705 17.6645 1.61154 11.7375 2.36488C5.81055 3.11823 2.00462 3.9937 1.45781 4.69975C0.911007 5.4058 1.52231 6.74809 1.70974 7.06702C1.85788 7.31909 2.59002 7.32806 2.95036 7.30042C3.02765 7.66287 3.25379 8.14823 3.39953 8.41912C3.39953 8.41912 3.52406 8.35803 3.76169 8.25437C3.87862 9.36233 4.4231 11.459 5.95656 13.268C6.69761 14.1422 7.7751 15.0032 8.85653 15.8674C10.9228 17.5186 13.0035 19.1812 12.7789 20.9693C12.6107 22.3089 11.4488 23.7396 10.2089 25.2664C8.9275 26.8442 7.56275 28.5247 7.12517 30.3134C6.3452 33.5016 7.08669 35.7728 7.35172 36.5319C7.09849 36.4914 6.96416 36.4637 6.96416 36.4637C6.89082 36.7624 6.79329 37.2889 6.80913 37.6592C6.45333 37.7226 5.74674 37.9144 5.66637 38.1955C5.56468 38.5512 5.30862 40.0037 6.01467 40.5506C6.72072 41.0974 10.6246 40.9929 16.5516 40.2395C22.4786 39.4862 26.2845 38.6107 26.8313 37.9047C27.3781 37.1986 26.7668 35.8563 26.5794 35.5374C26.4312 35.2853 25.6991 35.2763 25.3387 35.304C25.2615 34.9415 25.0353 34.4562 24.8896 34.1853C24.8896 34.1853 24.8273 34.2159 24.7066 34.2705C24.7746 33.4184 24.8838 31.0761 23.3657 28.2491C22.4946 26.6268 20.7528 25.3412 19.1175 24.1341C17.535 22.966 16.0522 21.8715 15.5542 20.6166C14.8894 18.9415 16.488 16.8112 18.0755 14.6956C18.9064 13.5884 19.7342 12.4852 20.233 11.4534C21.2493 9.35088 21.2674 7.21827 21.1112 6.10136C21.2516 6.1256 21.3249 6.14071 21.3249 6.14071C21.3983 5.84198 21.4958 5.31548 21.48 4.94522Z" fill="#7E4F4B"/>
<path d="M22.6228 4.40881L23.5843 4.68369L23.5843 4.68369L22.6228 4.40881ZM21.48 4.94515L21.3046 3.96065C20.8116 4.0485 20.4595 4.48754 20.4809 4.98792L21.48 4.94515ZM22.2745 2.05379L21.6622 2.84441L21.6622 2.84441L22.2745 2.05379ZM11.7376 2.36482L11.6115 1.3728L11.7376 2.36482ZM1.45788 4.69968L2.2485 5.31199L2.2485 5.31199L1.45788 4.69968ZM1.7098 7.06695L0.847663 7.57362L0.847666 7.57362L1.7098 7.06695ZM2.95043 7.30036L3.92845 7.09182C3.824 6.602 3.37332 6.26498 2.87395 6.30328L2.95043 7.30036ZM3.39959 8.41905L2.51896 8.89285C2.77371 9.36634 3.35728 9.55364 3.84 9.31685L3.39959 8.41905ZM3.76175 8.25431L4.75623 8.14935C4.72278 7.83242 4.54027 7.5504 4.26484 7.39007C3.98941 7.22974 3.65405 7.21029 3.36193 7.33771L3.76175 8.25431ZM5.95663 13.2679L5.19381 13.9145L5.95663 13.2679ZM8.8566 15.8673L9.48086 15.0861L8.8566 15.8673ZM12.779 20.9692L13.7712 21.0938L12.779 20.9692ZM10.209 25.2663L9.43269 24.6359L9.43269 24.6359L10.209 25.2663ZM7.12524 30.3133L6.15388 30.0757L6.15388 30.0757L7.12524 30.3133ZM7.35179 36.5319L7.19373 37.5193C7.5414 37.5749 7.89272 37.4436 8.11869 37.1736C8.34465 36.9036 8.41196 36.5346 8.2959 36.2022L7.35179 36.5319ZM6.96422 36.4636L7.16602 35.4842C6.63941 35.3757 6.12126 35.703 5.99306 36.2252L6.96422 36.4636ZM6.8092 37.6591L6.98459 38.6436C7.47766 38.5558 7.8297 38.1167 7.80829 37.6164L6.8092 37.6591ZM5.66644 38.1955L6.62792 38.4704L6.62792 38.4703L5.66644 38.1955ZM6.01474 40.5505L6.62704 39.7599L6.62704 39.7599L6.01474 40.5505ZM26.8314 37.9046L26.0407 37.2923L26.0407 37.2923L26.8314 37.9046ZM26.5794 35.5373L25.7173 36.044L25.7173 36.044L26.5794 35.5373ZM25.3388 35.3039L24.3608 35.5125C24.4652 36.0023 24.9159 36.3393 25.4153 36.301L25.3388 35.3039ZM24.8896 34.1852L25.7703 33.7114C25.5155 33.2379 24.932 33.0506 24.4493 33.2874L24.8896 34.1852ZM24.7067 34.2704L23.7099 34.1909C23.6817 34.5436 23.8421 34.885 24.1317 35.0885C24.4212 35.292 24.7967 35.3273 25.1191 35.1814L24.7067 34.2704ZM23.3658 28.2491L24.2468 27.776L24.2468 27.776L23.3658 28.2491ZM19.1175 24.134L19.7114 23.3294L19.7114 23.3294L19.1175 24.134ZM15.5542 20.6165L14.6247 20.9854L14.6247 20.9854L15.5542 20.6165ZM18.0756 14.6956L17.2757 14.0954L18.0756 14.6956ZM20.233 11.4533L21.1334 11.8886L21.1334 11.8886L20.233 11.4533ZM21.1113 6.10129L21.2814 5.11587C20.9667 5.06154 20.6449 5.1608 20.4155 5.38299C20.1861 5.60517 20.0767 5.92356 20.1209 6.23984L21.1113 6.10129ZM21.325 6.14064L21.1232 7.12007C21.6498 7.22857 22.168 6.90124 22.2962 6.37907L21.325 6.14064ZM21.6613 4.13393C21.7004 3.99712 21.7658 3.90598 21.8065 3.85856C21.847 3.81143 21.8792 3.78848 21.8847 3.78461C21.8922 3.77935 21.8661 3.79754 21.7883 3.82816C21.6367 3.88786 21.4393 3.93667 21.3046 3.96065L21.6554 5.92965C21.8766 5.89025 22.2104 5.81144 22.5211 5.68909C22.6745 5.62869 22.8624 5.54225 23.036 5.41998C23.1866 5.31396 23.4705 5.0818 23.5843 4.68369L21.6613 4.13393ZM21.6622 2.84441C21.6405 2.8276 21.663 2.83147 21.6935 2.92184C21.7248 3.01489 21.7476 3.15164 21.7518 3.32719C21.7605 3.6865 21.689 4.03708 21.6613 4.13393L23.5843 4.68369C23.6583 4.42486 23.7656 3.87133 23.7513 3.27875C23.7383 2.74393 23.6189 1.83013 22.8868 1.26317L21.6622 2.84441ZM11.8637 3.35684C14.8106 2.98227 17.2328 2.77197 18.9926 2.72133C19.8752 2.69594 20.5672 2.71151 21.065 2.76088C21.3145 2.78563 21.4932 2.8168 21.6121 2.8475C21.7502 2.88316 21.7334 2.89956 21.6622 2.84441L22.8868 1.26317C22.6391 1.07132 22.3459 0.971373 22.1121 0.911023C21.8592 0.845717 21.5708 0.801233 21.2624 0.770648C20.6445 0.709367 19.8577 0.695616 18.9351 0.722162C17.0847 0.775404 14.5915 0.994024 11.6115 1.3728L11.8637 3.35684ZM2.2485 5.31199C2.19335 5.3832 2.173 5.37151 2.29777 5.30245C2.4052 5.24298 2.57042 5.16809 2.80578 5.08172C3.27546 4.90937 3.94156 4.72118 4.80239 4.52498C6.51892 4.13376 8.91673 3.73141 11.8637 3.35684L11.6115 1.3728C8.63146 1.75157 6.16283 2.16363 4.35795 2.57499C3.45807 2.78008 2.69973 2.99023 2.11679 3.20415C1.82584 3.31091 1.55771 3.42614 1.32918 3.55264C1.118 3.66953 0.859106 3.83966 0.667256 4.08738L2.2485 5.31199ZM2.57195 6.56028C2.5209 6.47343 2.36394 6.1519 2.28248 5.80184C2.24268 5.63081 2.2305 5.49271 2.23759 5.39478C2.24448 5.29965 2.26532 5.29027 2.2485 5.31199L0.667256 4.08738C0.100294 4.81945 0.213274 5.73407 0.334526 6.25513C0.468872 6.83246 0.711272 7.34154 0.847663 7.57362L2.57195 6.56028ZM2.87395 6.30328C2.73758 6.31374 2.53424 6.31588 2.37249 6.29601C2.28953 6.28581 2.25973 6.27473 2.26827 6.27795C2.27456 6.28032 2.31153 6.29447 2.36251 6.32998C2.41379 6.36571 2.49985 6.43761 2.57194 6.56028L0.847666 7.57362C1.05746 7.9306 1.39035 8.08438 1.56268 8.14935C1.76143 8.22428 1.96496 8.26098 2.12859 8.28108C2.46004 8.3218 2.80293 8.31461 3.02691 8.29743L2.87395 6.30328ZM4.28023 7.94525C4.22108 7.83531 4.14208 7.67487 4.07099 7.50603C3.99665 7.32943 3.94805 7.18374 3.92845 7.09182L1.97242 7.50889C2.0804 8.0153 2.36298 8.60293 2.51896 8.89285L4.28023 7.94525ZM3.36193 7.33771C3.23582 7.39273 3.13825 7.43708 3.07066 7.46844C3.03686 7.48412 3.01056 7.49656 2.99192 7.50546C2.9826 7.50991 2.9752 7.51347 2.96974 7.51612C2.96701 7.51744 2.96476 7.51853 2.963 7.51939C2.96212 7.51981 2.96136 7.52019 2.96073 7.5205C2.96041 7.52065 2.96012 7.52079 2.95987 7.52092C2.95974 7.52098 2.95962 7.52104 2.9595 7.52109C2.95945 7.52112 2.95939 7.52115 2.95934 7.52117C2.95931 7.52119 2.95928 7.52121 2.95926 7.52121C2.95923 7.52123 2.95919 7.52125 3.39959 8.41905C3.84 9.31685 3.83997 9.31686 3.83993 9.31688C3.83992 9.31689 3.83988 9.3169 3.83986 9.31692C3.83982 9.31694 3.83977 9.31696 3.83973 9.31698C3.83965 9.31702 3.83957 9.31706 3.83951 9.31709C3.83937 9.31716 3.83927 9.31721 3.83919 9.31724C3.83904 9.31732 3.83901 9.31733 3.8391 9.31729C3.83928 9.3172 3.83994 9.31688 3.84108 9.31633C3.84336 9.31522 3.84754 9.31321 3.85361 9.31031C3.86575 9.30451 3.88543 9.2952 3.91247 9.28265C3.96655 9.25756 4.05006 9.21954 4.16158 9.1709L3.36193 7.33771ZM6.71945 12.6213C5.34674 11.0019 4.85773 9.11106 4.75623 8.14935L2.76728 8.35926C2.89964 9.61346 3.4996 11.9159 5.19381 13.9145L6.71945 12.6213ZM9.48086 15.0861C8.37613 14.2033 7.38467 13.4061 6.71945 12.6213L5.19381 13.9145C6.01068 14.8782 7.17421 15.803 8.23233 16.6485L9.48086 15.0861ZM13.7712 21.0938C13.9388 19.759 13.2296 18.6101 12.4248 17.7032C11.6061 16.7806 10.4948 15.8964 9.48086 15.0861L8.23233 16.6485C9.28467 17.4895 10.2469 18.2621 10.9289 19.0307C11.6249 19.815 11.8437 20.3914 11.7868 20.8446L13.7712 21.0938ZM10.9852 25.8967C11.5967 25.1437 12.2331 24.3618 12.7337 23.5935C13.2302 22.8315 13.659 21.987 13.7712 21.0938L11.7868 20.8446C11.7307 21.2911 11.4946 21.8317 11.058 22.5017C10.6257 23.1652 10.0611 23.8621 9.43269 24.6359L10.9852 25.8967ZM8.09659 30.551C8.47004 29.0244 9.66216 27.5259 10.9852 25.8967L9.43269 24.6359C8.19297 26.1625 6.65559 28.0249 6.15388 30.0757L8.09659 30.551ZM8.2959 36.2022C8.06124 35.5301 7.3818 33.4728 8.09659 30.551L6.15388 30.0757C5.30873 33.5303 6.11228 36.0154 6.40768 36.8615L8.2959 36.2022ZM6.96422 36.4636C6.76242 37.4431 6.76246 37.4431 6.7625 37.4431C6.76252 37.4431 6.76256 37.4431 6.76259 37.4431C6.76265 37.4431 6.76271 37.4431 6.76277 37.4431C6.76289 37.4432 6.76302 37.4432 6.76316 37.4432C6.76344 37.4433 6.76375 37.4433 6.76409 37.4434C6.76478 37.4435 6.7656 37.4437 6.76655 37.4439C6.76845 37.4443 6.77088 37.4448 6.77382 37.4454C6.77972 37.4466 6.78769 37.4481 6.79773 37.4501C6.81779 37.454 6.84607 37.4594 6.88233 37.4661C6.95485 37.4794 7.05929 37.4978 7.19373 37.5193L7.50986 35.5444C7.39106 35.5254 7.30172 35.5097 7.24376 35.499C7.21478 35.4937 7.19365 35.4896 7.18061 35.4871C7.17409 35.4858 7.1696 35.4849 7.16716 35.4844C7.16594 35.4842 7.16523 35.484 7.16504 35.484C7.16494 35.484 7.16498 35.484 7.16514 35.484C7.16522 35.484 7.16534 35.4841 7.16548 35.4841C7.16556 35.4841 7.16564 35.4841 7.16573 35.4841C7.16577 35.4842 7.16582 35.4842 7.16587 35.4842C7.16589 35.4842 7.16593 35.4842 7.16594 35.4842C7.16598 35.4842 7.16602 35.4842 6.96422 36.4636ZM7.80829 37.6164C7.80427 37.5225 7.81488 37.3693 7.84268 37.1797C7.86927 36.9984 7.90562 36.8233 7.93538 36.7021L5.99306 36.2252C5.91457 36.5449 5.78797 37.1846 5.81012 37.7019L7.80829 37.6164ZM6.62792 38.4703C6.58881 38.6072 6.52347 38.6983 6.48276 38.7457C6.44229 38.7928 6.41003 38.8158 6.40453 38.8197C6.39706 38.8249 6.42314 38.8067 6.5009 38.7761C6.65253 38.7164 6.84994 38.6676 6.98459 38.6436L6.63381 36.6746C6.41265 36.714 6.07886 36.7928 5.76815 36.9152C5.61475 36.9756 5.42687 37.062 5.2532 37.1843C5.1026 37.2903 4.81877 37.5225 4.70496 37.9206L6.62792 38.4703ZM6.62704 39.7599C6.64875 39.7767 6.62623 39.7728 6.59577 39.6824C6.5644 39.5894 6.54165 39.4526 6.53739 39.2771C6.52869 38.9178 6.60023 38.5672 6.62792 38.4704L4.70496 37.9206C4.63096 38.1794 4.52362 38.7329 4.53798 39.3255C4.55094 39.8603 4.67036 40.7741 5.40243 41.3411L6.62704 39.7599ZM16.4256 39.2474C13.4786 39.622 11.0564 39.8323 9.2966 39.8829C8.41407 39.9083 7.72207 39.8928 7.22421 39.8434C6.97472 39.8187 6.79602 39.7875 6.67713 39.7568C6.53906 39.7211 6.55583 39.7047 6.62704 39.7599L5.40243 41.3411C5.65015 41.533 5.94338 41.6329 6.17709 41.6933C6.42999 41.7586 6.71842 41.803 7.02683 41.8336C7.64475 41.8949 8.43155 41.9087 9.35412 41.8821C11.2045 41.8289 13.6977 41.6103 16.6778 41.2315L16.4256 39.2474ZM26.0407 37.2923C26.0959 37.2211 26.1162 37.2328 25.9915 37.3018C25.884 37.3613 25.7188 37.4362 25.4835 37.5226C25.0138 37.6949 24.3477 37.8831 23.4869 38.0793C21.7703 38.4705 19.3725 38.8729 16.4256 39.2474L16.6778 41.2315C19.6578 40.8527 22.1264 40.4406 23.9313 40.0293C24.8312 39.8242 25.5895 39.614 26.1725 39.4001C26.4634 39.2934 26.7315 39.1781 26.9601 39.0516C27.1712 38.9347 27.4301 38.7646 27.622 38.5169L26.0407 37.2923ZM25.7173 36.044C25.7683 36.1308 25.9253 36.4524 26.0068 36.8024C26.0466 36.9735 26.0587 37.1116 26.0516 37.2095C26.0448 37.3046 26.0239 37.314 26.0407 37.2923L27.622 38.5169C28.1889 37.7848 28.076 36.8702 27.9547 36.3491C27.8204 35.7718 27.578 35.2627 27.4416 35.0307L25.7173 36.044ZM25.4153 36.301C25.5517 36.2905 25.755 36.2884 25.9168 36.3083C25.9997 36.3185 26.0295 36.3295 26.021 36.3263C26.0147 36.324 25.9777 36.3098 25.9267 36.2743C25.8754 36.2386 25.7894 36.1667 25.7173 36.044L27.4416 35.0307C27.2318 34.6737 26.8989 34.5199 26.7266 34.4549C26.5278 34.38 26.3243 34.3433 26.1606 34.3232C25.8292 34.2825 25.4863 34.2897 25.2623 34.3069L25.4153 36.301ZM24.009 34.659C24.0682 34.769 24.1472 34.9294 24.2182 35.0983C24.2926 35.2749 24.3412 35.4205 24.3608 35.5125L26.3168 35.0954C26.2088 34.589 25.9263 34.0014 25.7703 33.7114L24.009 34.659ZM25.1191 35.1814C25.1843 35.1519 25.2348 35.1284 25.2702 35.1117C25.2878 35.1034 25.3017 35.0967 25.3117 35.0919C25.3167 35.0895 25.3207 35.0876 25.3238 35.0861C25.3253 35.0853 25.3266 35.0847 25.3276 35.0842C25.3282 35.084 25.3286 35.0837 25.329 35.0835C25.3292 35.0834 25.3294 35.0833 25.3296 35.0833C25.3297 35.0832 25.3297 35.0832 25.3298 35.0831C25.3299 35.0831 25.3299 35.0831 25.3299 35.0831C25.3299 35.0831 25.33 35.0831 25.33 35.0831C25.33 35.083 25.33 35.083 24.8896 34.1852C24.4493 33.2874 24.4493 33.2874 24.4493 33.2874C24.4493 33.2874 24.4493 33.2874 24.4494 33.2874C24.4494 33.2874 24.4494 33.2873 24.4494 33.2873C24.4495 33.2873 24.4496 33.2873 24.4496 33.2872C24.4497 33.2872 24.4498 33.2871 24.4499 33.2871C24.4501 33.287 24.4502 33.287 24.4502 33.287C24.4503 33.2869 24.4501 33.287 24.4497 33.2872C24.4489 33.2876 24.4471 33.2885 24.4444 33.2898C24.4389 33.2924 24.4296 33.2968 24.4166 33.303C24.3907 33.3152 24.3497 33.3343 24.2944 33.3594L25.1191 35.1814ZM22.4848 28.7222C23.8763 31.3136 23.7699 33.4382 23.7099 34.1909L25.7035 34.3499C25.7794 33.3985 25.8913 30.8385 24.2468 27.776L22.4848 28.7222ZM18.5237 24.9386C20.2122 26.1849 21.7413 27.3376 22.4848 28.7222L24.2468 27.776C23.248 25.9159 21.2936 24.4973 19.7114 23.3294L18.5237 24.9386ZM14.6247 20.9854C14.9568 21.822 15.5833 22.5324 16.2546 23.1459C16.9315 23.7646 17.7432 24.3625 18.5237 24.9386L19.7114 23.3294C18.9094 22.7374 18.1885 22.204 17.6038 21.6697C17.0136 21.1302 16.6497 20.6659 16.4837 20.2476L14.6247 20.9854ZM17.2757 14.0954C16.4967 15.1335 15.642 16.2676 15.0801 17.3657C14.5278 18.4451 14.1285 19.7349 14.6247 20.9854L16.4837 20.2476C16.3152 19.823 16.3829 19.2102 16.8605 18.2768C17.3286 17.362 18.0669 16.3732 18.8754 15.2958L17.2757 14.0954ZM19.3327 11.0181C18.885 11.9443 18.1245 12.9643 17.2757 14.0954L18.8754 15.2958C19.6884 14.2124 20.5835 13.0259 21.1334 11.8886L19.3327 11.0181ZM20.1209 6.23984C20.2572 7.21412 20.2422 9.13671 19.3327 11.0181L21.1334 11.8886C22.2566 9.56492 22.2778 7.2223 22.1016 5.96275L20.1209 6.23984ZM21.325 6.14064C21.5268 5.16122 21.5268 5.16121 21.5268 5.1612C21.5267 5.1612 21.5267 5.16119 21.5267 5.16119C21.5267 5.16118 21.5266 5.16117 21.5266 5.16116C21.5265 5.16115 21.5264 5.16113 21.5263 5.16111C21.5261 5.16107 21.5259 5.16102 21.5257 5.16098C21.5252 5.16088 21.5247 5.16078 21.5241 5.16065C21.5229 5.16041 21.5214 5.16011 21.5196 5.15975C21.5161 5.15903 21.5114 5.15809 21.5056 5.15694C21.4939 5.15463 21.4778 5.15148 21.4572 5.14758C21.416 5.13977 21.3571 5.12895 21.2814 5.11587L20.9412 7.08672C21.0058 7.09788 21.0538 7.10673 21.0844 7.11254C21.0997 7.11544 21.1107 7.11758 21.1172 7.11887C21.1204 7.11951 21.1226 7.11994 21.1236 7.12014C21.1241 7.12025 21.1243 7.12029 21.1242 7.12028C21.1242 7.12027 21.1241 7.12025 21.1239 7.12022C21.1239 7.1202 21.1238 7.12018 21.1236 7.12015C21.1236 7.12014 21.1235 7.12013 21.1234 7.12011C21.1234 7.12011 21.1234 7.1201 21.1233 7.12009C21.1233 7.12009 21.1233 7.12008 21.1233 7.12008C21.1232 7.12007 21.1232 7.12007 21.325 6.14064ZM20.4809 4.98792C20.485 5.08182 20.4744 5.23503 20.4466 5.42462C20.42 5.60588 20.3836 5.78098 20.3539 5.90221L22.2962 6.37907C22.3747 6.05934 22.5013 5.41971 22.4791 4.90239L20.4809 4.98792Z" fill="#7E4F4B" mask="url(#path-1-outside-1_337_435)"/>
<path d="M16.097 30.5893C16.6798 30.4502 18.5375 30.2425 21.1502 30.5732C22.7729 30.7786 23.7251 31.1658 24.2402 31.5158C24.2972 31.8629 24.3319 32.1848 24.3516 32.477C24.4015 33.2171 24.355 33.7675 24.3295 34.0581C23.1308 34.5622 20.1597 35.6703 16.1582 36.1789C12.3411 36.664 9.29528 36.3865 7.90586 36.1965C7.73602 35.7159 7.20313 34.2701 7.31065 32.154C7.32755 31.8214 7.36026 31.4722 7.41269 31.1077C7.80133 31.172 9.31561 31.1438 10.3011 30.6363C11.2228 30.1616 12.8872 28.4454 13.7121 28.3934C13.8301 27.6314 14.0383 24.1865 13.73 21.0853C13.3808 17.5719 8.38121 15.4558 6.21273 12.9249C6.05455 12.7403 5.90685 12.5527 5.76902 12.3634C6.25191 12.0827 7.13233 11.7989 8.67256 12.3219C9.29656 12.5338 9.93374 12.8114 10.5775 13.1027C11.7732 12.7883 14.5643 12.2364 16.1974 12.5351C17.2266 12.7234 17.9317 12.9825 18.3638 13.1989C16.7624 15.4157 14.8952 17.6253 14.7264 19.6507C14.5577 21.676 13.9447 27.4599 13.7245 28.3927C13.7944 28.3897 13.8581 28.399 13.9146 28.4225C14.4828 28.6581 14.9591 29.6042 16.097 30.5893Z" fill="#E3E3E3"/>
</svg>
