<svg width="193" height="42" viewBox="0 0 193 42" fill="none" xmlns="http://www.w3.org/2000/svg">
<rect x="1" y="9" width="191" height="25" rx="7" fill="#68E966" fill-opacity="0.8" stroke="#7E4F4B" stroke-width="2" stroke-linejoin="round"/>
<rect x="5" y="12" width="182" height="9" rx="4.5" fill="#B9FFB8" fill-opacity="0.8"/>
<mask id="path-3-outside-1_333_232" maskUnits="userSpaceOnUse" x="154.882" y="-0.162484" width="28.9782" height="43.6989" fill="black">
<rect fill="white" x="154.882" y="-0.162484" width="28.9782" height="43.6989"/>
<path fill-rule="evenodd" clip-rule="evenodd" d="M176.48 4.94515C176.836 4.88176 177.542 4.68992 177.623 4.40881C177.724 4.05313 177.981 2.60059 177.275 2.05379C176.568 1.50699 172.665 1.61147 166.738 2.36482C160.811 3.11816 157.005 3.99363 156.458 4.69968C155.911 5.40573 156.522 6.74802 156.71 7.06695C156.858 7.31902 157.59 7.328 157.95 7.30036C158.028 7.6628 158.254 8.14817 158.4 8.41905C158.4 8.41905 158.524 8.35796 158.762 8.25431C158.879 9.36226 159.423 11.4589 160.957 13.2679C161.698 14.1421 162.775 15.0032 163.857 15.8673C165.923 17.5185 168.004 19.1811 167.779 20.9692C167.611 22.3088 166.449 23.7395 165.209 25.2663C163.928 26.8442 162.563 28.5247 162.125 30.3133C161.345 33.5015 162.087 35.7728 162.352 36.5319C162.099 36.4913 161.964 36.4636 161.964 36.4636C161.891 36.7624 161.793 37.2889 161.809 37.6591C161.453 37.7225 160.747 37.9144 160.666 38.1955C160.565 38.5511 160.309 40.0037 161.015 40.5505C161.721 41.0973 165.625 40.9928 171.552 40.2395C177.479 39.4861 181.285 38.6106 181.831 37.9046C182.378 37.1985 181.767 35.8563 181.579 35.5373C181.431 35.2853 180.699 35.2763 180.339 35.3039C180.262 34.9415 180.035 34.4561 179.89 34.1852C179.89 34.1852 179.827 34.2158 179.707 34.2704C179.775 33.4183 179.884 31.0761 178.366 28.2491C177.495 26.6268 175.753 25.3411 174.118 24.134C172.535 22.9659 171.052 21.8714 170.554 20.6165C169.889 18.9414 171.488 16.8111 173.076 14.6956C173.906 13.5883 174.734 12.4851 175.233 11.4533C176.249 9.35081 176.268 7.21821 176.111 6.10129C176.252 6.12553 176.325 6.14064 176.325 6.14064C176.398 5.84191 176.496 5.31541 176.48 4.94515Z"/>
</mask>
<path fill-rule="evenodd" clip-rule="evenodd" d="M176.48 4.94515C176.836 4.88176 177.542 4.68992 177.623 4.40881C177.724 4.05313 177.981 2.60059 177.275 2.05379C176.568 1.50699 172.665 1.61147 166.738 2.36482C160.811 3.11816 157.005 3.99363 156.458 4.69968C155.911 5.40573 156.522 6.74802 156.71 7.06695C156.858 7.31902 157.59 7.328 157.95 7.30036C158.028 7.6628 158.254 8.14817 158.4 8.41905C158.4 8.41905 158.524 8.35796 158.762 8.25431C158.879 9.36226 159.423 11.4589 160.957 13.2679C161.698 14.1421 162.775 15.0032 163.857 15.8673C165.923 17.5185 168.004 19.1811 167.779 20.9692C167.611 22.3088 166.449 23.7395 165.209 25.2663C163.928 26.8442 162.563 28.5247 162.125 30.3133C161.345 33.5015 162.087 35.7728 162.352 36.5319C162.099 36.4913 161.964 36.4636 161.964 36.4636C161.891 36.7624 161.793 37.2889 161.809 37.6591C161.453 37.7225 160.747 37.9144 160.666 38.1955C160.565 38.5511 160.309 40.0037 161.015 40.5505C161.721 41.0973 165.625 40.9928 171.552 40.2395C177.479 39.4861 181.285 38.6106 181.831 37.9046C182.378 37.1985 181.767 35.8563 181.579 35.5373C181.431 35.2853 180.699 35.2763 180.339 35.3039C180.262 34.9415 180.035 34.4561 179.89 34.1852C179.89 34.1852 179.827 34.2158 179.707 34.2704C179.775 33.4183 179.884 31.0761 178.366 28.2491C177.495 26.6268 175.753 25.3411 174.118 24.134C172.535 22.9659 171.052 21.8714 170.554 20.6165C169.889 18.9414 171.488 16.8111 173.076 14.6956C173.906 13.5883 174.734 12.4851 175.233 11.4533C176.249 9.35081 176.268 7.21821 176.111 6.10129C176.252 6.12553 176.325 6.14064 176.325 6.14064C176.398 5.84191 176.496 5.31541 176.48 4.94515Z" fill="#7E4F4B"/>
<path d="M177.623 4.40881L178.584 4.68369L178.584 4.68369L177.623 4.40881ZM176.48 4.94515L176.305 3.96065C175.812 4.0485 175.46 4.48754 175.481 4.98792L176.48 4.94515ZM177.275 2.05379L176.662 2.84441L176.662 2.84441L177.275 2.05379ZM166.738 2.36482L166.611 1.3728L166.738 2.36482ZM156.458 4.69968L157.249 5.31199L157.249 5.31199L156.458 4.69968ZM156.71 7.06695L155.848 7.57362L155.848 7.57362L156.71 7.06695ZM157.95 7.30036L158.928 7.09182C158.824 6.602 158.373 6.26498 157.874 6.30328L157.95 7.30036ZM158.4 8.41905L157.519 8.89285C157.774 9.36634 158.357 9.55364 158.84 9.31685L158.4 8.41905ZM158.762 8.25431L159.756 8.14935C159.723 7.83242 159.54 7.5504 159.265 7.39007C158.989 7.22974 158.654 7.21029 158.362 7.33771L158.762 8.25431ZM160.957 13.2679L160.194 13.9145L160.957 13.2679ZM163.857 15.8673L164.481 15.0861L163.857 15.8673ZM167.779 20.9692L168.771 21.0938L167.779 20.9692ZM165.209 25.2663L164.433 24.6359L164.433 24.6359L165.209 25.2663ZM162.125 30.3133L161.154 30.0757L161.154 30.0757L162.125 30.3133ZM162.352 36.5319L162.194 37.5193C162.541 37.5749 162.893 37.4436 163.119 37.1736C163.345 36.9036 163.412 36.5346 163.296 36.2022L162.352 36.5319ZM161.964 36.4636L162.166 35.4842C161.639 35.3757 161.121 35.703 160.993 36.2252L161.964 36.4636ZM161.809 37.6591L161.985 38.6436C162.478 38.5558 162.83 38.1167 162.808 37.6164L161.809 37.6591ZM160.666 38.1955L161.628 38.4704L161.628 38.4703L160.666 38.1955ZM161.015 40.5505L161.627 39.7599L161.627 39.7599L161.015 40.5505ZM181.831 37.9046L181.041 37.2923L181.041 37.2923L181.831 37.9046ZM181.579 35.5373L180.717 36.044L180.717 36.044L181.579 35.5373ZM180.339 35.3039L179.361 35.5125C179.465 36.0023 179.916 36.3393 180.415 36.301L180.339 35.3039ZM179.89 34.1852L180.77 33.7114C180.516 33.2379 179.932 33.0506 179.449 33.2874L179.89 34.1852ZM179.707 34.2704L178.71 34.1909C178.682 34.5436 178.842 34.885 179.132 35.0885C179.421 35.292 179.797 35.3273 180.119 35.1814L179.707 34.2704ZM178.366 28.2491L179.247 27.776L179.247 27.776L178.366 28.2491ZM174.118 24.134L174.711 23.3294L174.711 23.3294L174.118 24.134ZM170.554 20.6165L169.625 20.9854L169.625 20.9854L170.554 20.6165ZM173.076 14.6956L172.276 14.0954L173.076 14.6956ZM175.233 11.4533L176.133 11.8886L176.133 11.8886L175.233 11.4533ZM176.111 6.10129L176.281 5.11587C175.967 5.06154 175.645 5.1608 175.416 5.38299C175.186 5.60517 175.077 5.92356 175.121 6.23984L176.111 6.10129ZM176.325 6.14064L176.123 7.12007C176.65 7.22857 177.168 6.90124 177.296 6.37907L176.325 6.14064ZM176.661 4.13393C176.7 3.99712 176.766 3.90598 176.806 3.85856C176.847 3.81143 176.879 3.78848 176.885 3.78461C176.892 3.77935 176.866 3.79754 176.788 3.82816C176.637 3.88786 176.439 3.93667 176.305 3.96065L176.655 5.92965C176.877 5.89025 177.21 5.81144 177.521 5.68909C177.674 5.62869 177.862 5.54225 178.036 5.41998C178.187 5.31396 178.47 5.0818 178.584 4.68369L176.661 4.13393ZM176.662 2.84441C176.64 2.8276 176.663 2.83147 176.693 2.92184C176.725 3.01489 176.748 3.15164 176.752 3.32719C176.761 3.6865 176.689 4.03708 176.661 4.13393L178.584 4.68369C178.658 4.42486 178.766 3.87133 178.751 3.27875C178.738 2.74393 178.619 1.83013 177.887 1.26317L176.662 2.84441ZM166.864 3.35684C169.811 2.98227 172.233 2.77197 173.993 2.72133C174.875 2.69594 175.567 2.71151 176.065 2.76088C176.315 2.78563 176.493 2.8168 176.612 2.8475C176.75 2.88316 176.733 2.89956 176.662 2.84441L177.887 1.26317C177.639 1.07132 177.346 0.971373 177.112 0.911023C176.859 0.845717 176.571 0.801233 176.262 0.770648C175.644 0.709367 174.858 0.695616 173.935 0.722162C172.085 0.775404 169.591 0.994024 166.611 1.3728L166.864 3.35684ZM157.249 5.31199C157.193 5.3832 157.173 5.37151 157.298 5.30245C157.405 5.24298 157.57 5.16809 157.806 5.08172C158.275 4.90937 158.942 4.72118 159.802 4.52498C161.519 4.13376 163.917 3.73141 166.864 3.35684L166.611 1.3728C163.631 1.75157 161.163 2.16363 159.358 2.57499C158.458 2.78008 157.7 2.99023 157.117 3.20415C156.826 3.31091 156.558 3.42614 156.329 3.55264C156.118 3.66953 155.859 3.83966 155.667 4.08738L157.249 5.31199ZM157.572 6.56028C157.521 6.47343 157.364 6.1519 157.282 5.80184C157.243 5.63081 157.231 5.49271 157.238 5.39478C157.244 5.29965 157.265 5.29027 157.249 5.31199L155.667 4.08738C155.1 4.81945 155.213 5.73407 155.335 6.25513C155.469 6.83246 155.711 7.34154 155.848 7.57362L157.572 6.56028ZM157.874 6.30328C157.738 6.31374 157.534 6.31588 157.372 6.29601C157.29 6.28581 157.26 6.27473 157.268 6.27795C157.275 6.28032 157.312 6.29447 157.363 6.32998C157.414 6.36571 157.5 6.43761 157.572 6.56028L155.848 7.57362C156.057 7.9306 156.39 8.08438 156.563 8.14935C156.761 8.22428 156.965 8.26098 157.129 8.28108C157.46 8.3218 157.803 8.31461 158.027 8.29743L157.874 6.30328ZM159.28 7.94525C159.221 7.83531 159.142 7.67487 159.071 7.50603C158.997 7.32943 158.948 7.18374 158.928 7.09182L156.972 7.50889C157.08 8.0153 157.363 8.60293 157.519 8.89285L159.28 7.94525ZM158.362 7.33771C158.236 7.39273 158.138 7.43708 158.071 7.46844C158.037 7.48412 158.011 7.49656 157.992 7.50546C157.983 7.50991 157.975 7.51347 157.97 7.51612C157.967 7.51744 157.965 7.51853 157.963 7.51939C157.962 7.51981 157.961 7.52019 157.961 7.5205C157.96 7.52065 157.96 7.52079 157.96 7.52092C157.96 7.52098 157.96 7.52104 157.96 7.52109C157.959 7.52112 157.959 7.52115 157.959 7.52117C157.959 7.52119 157.959 7.52121 157.959 7.52121C157.959 7.52123 157.959 7.52125 158.4 8.41905C158.84 9.31685 158.84 9.31686 158.84 9.31688C158.84 9.31689 158.84 9.3169 158.84 9.31692C158.84 9.31694 158.84 9.31696 158.84 9.31698C158.84 9.31702 158.84 9.31706 158.84 9.31709C158.839 9.31716 158.839 9.31721 158.839 9.31724C158.839 9.31732 158.839 9.31733 158.839 9.31729C158.839 9.3172 158.84 9.31688 158.841 9.31633C158.843 9.31522 158.848 9.31321 158.854 9.31031C158.866 9.30451 158.885 9.2952 158.912 9.28265C158.967 9.25756 159.05 9.21954 159.162 9.1709L158.362 7.33771ZM161.719 12.6213C160.347 11.0019 159.858 9.11106 159.756 8.14935L157.767 8.35926C157.9 9.61346 158.5 11.9159 160.194 13.9145L161.719 12.6213ZM164.481 15.0861C163.376 14.2033 162.385 13.4061 161.719 12.6213L160.194 13.9145C161.011 14.8782 162.174 15.803 163.232 16.6485L164.481 15.0861ZM168.771 21.0938C168.939 19.759 168.23 18.6101 167.425 17.7032C166.606 16.7806 165.495 15.8964 164.481 15.0861L163.232 16.6485C164.285 17.4895 165.247 18.2621 165.929 19.0307C166.625 19.815 166.844 20.3914 166.787 20.8446L168.771 21.0938ZM165.985 25.8967C166.597 25.1437 167.233 24.3618 167.734 23.5935C168.23 22.8315 168.659 21.987 168.771 21.0938L166.787 20.8446C166.731 21.2911 166.495 21.8317 166.058 22.5017C165.626 23.1652 165.061 23.8621 164.433 24.6359L165.985 25.8967ZM163.097 30.551C163.47 29.0244 164.662 27.5259 165.985 25.8967L164.433 24.6359C163.193 26.1625 161.656 28.0249 161.154 30.0757L163.097 30.551ZM163.296 36.2022C163.061 35.5301 162.382 33.4728 163.097 30.551L161.154 30.0757C160.309 33.5303 161.112 36.0154 161.408 36.8615L163.296 36.2022ZM161.964 36.4636C161.762 37.4431 161.762 37.4431 161.763 37.4431C161.763 37.4431 161.763 37.4431 161.763 37.4431C161.763 37.4431 161.763 37.4431 161.763 37.4431C161.763 37.4432 161.763 37.4432 161.763 37.4432C161.763 37.4433 161.764 37.4433 161.764 37.4434C161.765 37.4435 161.766 37.4437 161.767 37.4439C161.768 37.4443 161.771 37.4448 161.774 37.4454C161.78 37.4466 161.788 37.4481 161.798 37.4501C161.818 37.454 161.846 37.4594 161.882 37.4661C161.955 37.4794 162.059 37.4978 162.194 37.5193L162.51 35.5444C162.391 35.5254 162.302 35.5097 162.244 35.499C162.215 35.4937 162.194 35.4896 162.181 35.4871C162.174 35.4858 162.17 35.4849 162.167 35.4844C162.166 35.4842 162.165 35.484 162.165 35.484C162.165 35.484 162.165 35.484 162.165 35.484C162.165 35.484 162.165 35.4841 162.165 35.4841C162.166 35.4841 162.166 35.4841 162.166 35.4841C162.166 35.4842 162.166 35.4842 162.166 35.4842C162.166 35.4842 162.166 35.4842 162.166 35.4842C162.166 35.4842 162.166 35.4842 161.964 36.4636ZM162.808 37.6164C162.804 37.5225 162.815 37.3693 162.843 37.1797C162.869 36.9984 162.906 36.8233 162.935 36.7021L160.993 36.2252C160.915 36.5449 160.788 37.1846 160.81 37.7019L162.808 37.6164ZM161.628 38.4703C161.589 38.6072 161.523 38.6983 161.483 38.7457C161.442 38.7928 161.41 38.8158 161.405 38.8197C161.397 38.8249 161.423 38.8067 161.501 38.7761C161.653 38.7164 161.85 38.6676 161.985 38.6436L161.634 36.6746C161.413 36.714 161.079 36.7928 160.768 36.9152C160.615 36.9756 160.427 37.062 160.253 37.1843C160.103 37.2903 159.819 37.5225 159.705 37.9206L161.628 38.4703ZM161.627 39.7599C161.649 39.7767 161.626 39.7728 161.596 39.6824C161.564 39.5894 161.542 39.4526 161.537 39.2771C161.529 38.9178 161.6 38.5672 161.628 38.4704L159.705 37.9206C159.631 38.1794 159.524 38.7329 159.538 39.3255C159.551 39.8603 159.67 40.7741 160.402 41.3411L161.627 39.7599ZM171.426 39.2474C168.479 39.622 166.056 39.8323 164.297 39.8829C163.414 39.9083 162.722 39.8928 162.224 39.8434C161.975 39.8187 161.796 39.7875 161.677 39.7568C161.539 39.7211 161.556 39.7047 161.627 39.7599L160.402 41.3411C160.65 41.533 160.943 41.6329 161.177 41.6933C161.43 41.7586 161.718 41.803 162.027 41.8336C162.645 41.8949 163.432 41.9087 164.354 41.8821C166.205 41.8289 168.698 41.6103 171.678 41.2315L171.426 39.2474ZM181.041 37.2923C181.096 37.2211 181.116 37.2328 180.991 37.3018C180.884 37.3613 180.719 37.4362 180.483 37.5226C180.014 37.6949 179.348 37.8831 178.487 38.0793C176.77 38.4705 174.373 38.8729 171.426 39.2474L171.678 41.2315C174.658 40.8527 177.126 40.4406 178.931 40.0293C179.831 39.8242 180.59 39.614 181.172 39.4001C181.463 39.2934 181.732 39.1781 181.96 39.0516C182.171 38.9347 182.43 38.7646 182.622 38.5169L181.041 37.2923ZM180.717 36.044C180.768 36.1308 180.925 36.4524 181.007 36.8024C181.047 36.9735 181.059 37.1116 181.052 37.2095C181.045 37.3046 181.024 37.314 181.041 37.2923L182.622 38.5169C183.189 37.7848 183.076 36.8702 182.955 36.3491C182.82 35.7718 182.578 35.2627 182.442 35.0307L180.717 36.044ZM180.415 36.301C180.552 36.2905 180.755 36.2884 180.917 36.3083C181 36.3185 181.03 36.3295 181.021 36.3263C181.015 36.324 180.978 36.3098 180.927 36.2743C180.875 36.2386 180.789 36.1667 180.717 36.044L182.442 35.0307C182.232 34.6737 181.899 34.5199 181.727 34.4549C181.528 34.38 181.324 34.3433 181.161 34.3232C180.829 34.2825 180.486 34.2897 180.262 34.3069L180.415 36.301ZM179.009 34.659C179.068 34.769 179.147 34.9294 179.218 35.0983C179.293 35.2749 179.341 35.4205 179.361 35.5125L181.317 35.0954C181.209 34.589 180.926 34.0014 180.77 33.7114L179.009 34.659ZM180.119 35.1814C180.184 35.1519 180.235 35.1284 180.27 35.1117C180.288 35.1034 180.302 35.0967 180.312 35.0919C180.317 35.0895 180.321 35.0876 180.324 35.0861C180.325 35.0853 180.327 35.0847 180.328 35.0842C180.328 35.084 180.329 35.0837 180.329 35.0835C180.329 35.0834 180.329 35.0833 180.33 35.0833C180.33 35.0832 180.33 35.0832 180.33 35.0831C180.33 35.0831 180.33 35.0831 180.33 35.0831C180.33 35.0831 180.33 35.0831 180.33 35.0831C180.33 35.083 180.33 35.083 179.89 34.1852C179.449 33.2874 179.449 33.2874 179.449 33.2874C179.449 33.2874 179.449 33.2874 179.449 33.2874C179.449 33.2874 179.449 33.2873 179.449 33.2873C179.45 33.2873 179.45 33.2873 179.45 33.2872C179.45 33.2872 179.45 33.2871 179.45 33.2871C179.45 33.287 179.45 33.287 179.45 33.287C179.45 33.2869 179.45 33.287 179.45 33.2872C179.449 33.2876 179.447 33.2885 179.444 33.2898C179.439 33.2924 179.43 33.2968 179.417 33.303C179.391 33.3152 179.35 33.3343 179.294 33.3594L180.119 35.1814ZM177.485 28.7222C178.876 31.3136 178.77 33.4382 178.71 34.1909L180.704 34.3499C180.779 33.3985 180.891 30.8385 179.247 27.776L177.485 28.7222ZM173.524 24.9386C175.212 26.1849 176.741 27.3376 177.485 28.7222L179.247 27.776C178.248 25.9159 176.294 24.4973 174.711 23.3294L173.524 24.9386ZM169.625 20.9854C169.957 21.822 170.583 22.5324 171.255 23.1459C171.931 23.7646 172.743 24.3625 173.524 24.9386L174.711 23.3294C173.909 22.7374 173.188 22.204 172.604 21.6697C172.014 21.1302 171.65 20.6659 171.484 20.2476L169.625 20.9854ZM172.276 14.0954C171.497 15.1335 170.642 16.2676 170.08 17.3657C169.528 18.4451 169.129 19.7349 169.625 20.9854L171.484 20.2476C171.315 19.823 171.383 19.2102 171.861 18.2768C172.329 17.362 173.067 16.3732 173.875 15.2958L172.276 14.0954ZM174.333 11.0181C173.885 11.9443 173.124 12.9643 172.276 14.0954L173.875 15.2958C174.688 14.2124 175.584 13.0259 176.133 11.8886L174.333 11.0181ZM175.121 6.23984C175.257 7.21412 175.242 9.13671 174.333 11.0181L176.133 11.8886C177.257 9.56492 177.278 7.2223 177.102 5.96275L175.121 6.23984ZM176.325 6.14064C176.527 5.16122 176.527 5.16121 176.527 5.1612C176.527 5.1612 176.527 5.16119 176.527 5.16119C176.527 5.16118 176.527 5.16117 176.527 5.16116C176.526 5.16115 176.526 5.16113 176.526 5.16111C176.526 5.16107 176.526 5.16102 176.526 5.16098C176.525 5.16088 176.525 5.16078 176.524 5.16065C176.523 5.16041 176.521 5.16011 176.52 5.15975C176.516 5.15903 176.511 5.15809 176.506 5.15694C176.494 5.15463 176.478 5.15148 176.457 5.14758C176.416 5.13977 176.357 5.12895 176.281 5.11587L175.941 7.08672C176.006 7.09788 176.054 7.10673 176.084 7.11254C176.1 7.11544 176.111 7.11758 176.117 7.11887C176.12 7.11951 176.123 7.11994 176.124 7.12014C176.124 7.12025 176.124 7.12029 176.124 7.12028C176.124 7.12027 176.124 7.12025 176.124 7.12022C176.124 7.1202 176.124 7.12018 176.124 7.12015C176.124 7.12014 176.124 7.12013 176.123 7.12011C176.123 7.12011 176.123 7.1201 176.123 7.12009C176.123 7.12009 176.123 7.12008 176.123 7.12008C176.123 7.12007 176.123 7.12007 176.325 6.14064ZM175.481 4.98792C175.485 5.08182 175.474 5.23503 175.447 5.42462C175.42 5.60588 175.384 5.78098 175.354 5.90221L177.296 6.37907C177.375 6.05934 177.501 5.41971 177.479 4.90239L175.481 4.98792Z" fill="#7E4F4B" mask="url(#path-3-outside-1_333_232)"/>
<path d="M171.097 30.5893C171.68 30.4502 173.537 30.2425 176.15 30.5732C177.773 30.7786 178.725 31.1658 179.24 31.5158C179.297 31.8629 179.332 32.1848 179.352 32.477C179.402 33.2171 179.355 33.7675 179.329 34.0581C178.131 34.5622 175.16 35.6703 171.158 36.1789C167.341 36.664 164.295 36.3865 162.906 36.1965C162.736 35.7159 162.203 34.2701 162.311 32.154C162.328 31.8214 162.36 31.4722 162.413 31.1077C162.801 31.172 164.316 31.1438 165.301 30.6363C166.223 30.1616 167.887 28.4454 168.712 28.3934C168.83 27.6314 169.038 24.1865 168.73 21.0853C168.381 17.5719 163.381 15.4558 161.213 12.9249C161.055 12.7403 160.907 12.5527 160.769 12.3634C161.252 12.0827 162.132 11.7989 163.673 12.3219C164.297 12.5338 164.934 12.8114 165.577 13.1027C166.773 12.7883 169.564 12.2364 171.197 12.5351C172.227 12.7234 172.932 12.9825 173.364 13.1989C171.762 15.4157 169.895 17.6253 169.726 19.6507C169.558 21.676 168.945 27.4599 168.725 28.3927C168.794 28.3897 168.858 28.399 168.915 28.4225C169.483 28.6581 169.959 29.6042 171.097 30.5893Z" fill="#E3E3E3"/>
</svg>
